# xmcd
#
# Track frame offsets: 
#        150
#        10630
#        28935
#        44190
#        61102
#        72202
#        84982
#        106197
#        126892
#        137805
#        152962
#        170410
#        187810
#        208042
#        221375
#
# Disc length: 3168 seconds
#
# Revision: 15
# Processed by: cddbd v1.5.2PL0 Copyright (c) Steve Scherf et al.
# Submitted via: ExactAudioCopyFreeDBPlugin 1.0
#
DISCID=cd0c5e0f
DTITLE=Johnny Cash - Cash Unearthed
DYEAR=2003
DGENRE=Country
TTITLE0=Delia's Gone
TTITLE1=Bird on a Wire
TTITLE2=Thirteen
TTITLE3=Rowboat
TTITLE4=The One Rose (That's Left in My Heart)
TTITLE5=Rusty Cage
TTITLE6=Southern Accents
TTITLE7=Mercy Seat
TTITLE8=Solitary Man
TTITLE9=Wayfaring Stranger
TTITLE10=One
TTITLE11=Hung My Head
TTITLE12=The Man Comes Around
TTITLE13=We'll Meet Again
TTITLE14=Hurt
EXTD=Limited Edition Deluxe Packaging With 5 Discs.\r\n06024 9861335 1
EXTD=YEAR: 2003
EXTT0=
EXTT1=
EXTT2=
EXTT3=
EXTT4=
EXTT5=
EXTT6=
EXTT7=
EXTT8=
EXTT9=
EXTT10=
EXTT11=
EXTT12=
EXTT13=
EXTT14=
PLAYORDER=
